<?xml version="1.0" encoding="UTF-8"?>
<!-- Created with Inkscape (http://www.inkscape.org/) -->
<svg id="svg2" sodipodi:version="0.32" inkscape:version="0.45.1" width="360.03662" height="632.29218" version="1.0" sodipodi:docbase="C:\Documents and Settings\Compte admin\Mes documents\Mes images" sodipodi:docname="Peter Pan by nk.svg" inkscape:output_extension="org.inkscape.output.svg.inkscape" xmlns:dc="http://purl.org/dc/elements/1.1/" xmlns:cc="http://web.resource.org/cc/" xmlns:rdf="http://www.w3.org/1999/02/22-rdf-syntax-ns#" xmlns:svg="http://www.w3.org/2000/svg" xmlns="http://www.w3.org/2000/svg" xmlns:sodipodi="http://sodipodi.sourceforge.net/DTD/sodipodi-0.dtd" xmlns:inkscape="http://www.inkscape.org/namespaces/inkscape">
  <metadata id="metadata7">
    <rdf:RDF>
      <cc:Work rdf:about="">
        <dc:format>image/svg+xml</dc:format>
        <dc:type rdf:resource="http://purl.org/dc/dcmitype/StillImage"/>
      </cc:Work>
    </rdf:RDF>
  </metadata>
  <defs id="defs5"/>
  <sodipodi:namedview inkscape:window-height="720" inkscape:window-width="1024" inkscape:pageshadow="2" inkscape:pageopacity="0.0" guidetolerance="10.0" gridtolerance="10.0" objecttolerance="10.0" borderopacity="1.0" bordercolor="#666666" pagecolor="#ffffff" id="base" inkscape:zoom="0.93499995" inkscape:cx="210.72348" inkscape:cy="242.00057" inkscape:window-x="-4" inkscape:window-y="-4" inkscape:current-layer="svg2" width="1000px" height="1600px"/>
  <path style="fill:#3d6d39;fill-opacity:1;fill-rule:evenodd;stroke:#000000;stroke-width:0.27757603;stroke-linecap:butt;stroke-linejoin:miter;stroke-miterlimit:4;stroke-dasharray:none;stroke-opacity:1" d="M 208.43327,339.4856 C 216.06714,382.53219 216.49124,384.01653 216.49124,384.01653 L 223.48895,394.40708 L 233.24335,378.29112 L 245.11825,335.45662 L 254.66059,348.17975 L 260.31186,326.0551 C 260.31186,326.0551 283.16341,358.75998 283.16341,357.06357 C 283.16341,355.36714 281.23376,319.07812 281.23376,319.07812 L 294.87681,329.52414 L 279.25861,295.80292 C 279.25861,295.80292 177.68573,291.13777 177.89778,291.98597 C 178.10984,292.83419 160.29749,351.57257 160.29749,351.57257 L 176.20138,335.45662 L 181.07857,357.51002 L 198.25478,318.28042 L 191.68116,363.23542 L 208.43327,339.4856 z " id="path47834" inkscape:export-filename="C:\Documents and Settings\Compte admin\Mes documents\Mes images\flowRoot42002655.png" inkscape:export-xdpi="270" inkscape:export-ydpi="270" sodipodi:nodetypes="cccccccscccscccccc"/>
  <path style="fill:#384f36;fill-rule:evenodd;stroke:#000000;stroke-width:0.3;stroke-linecap:butt;stroke-linejoin:miter;stroke-opacity:1;fill-opacity:1;stroke-miterlimit:4;stroke-dasharray:none" d="M 260.53294,105.93245 C 254.67189,104.04179 251.8359,105.17619 251.8359,105.17619 L 257.88601,111.03723 L 260.53294,105.93245 z " id="path45885" inkscape:export-filename="C:\Documents and Settings\Compte admin\Mes documents\Mes images\flowRoot42002655.png" inkscape:export-xdpi="270" inkscape:export-ydpi="270"/>
  <path inkscape:export-ydpi="270" inkscape:export-xdpi="270" inkscape:export-filename="C:\Documents and Settings\Compte admin\Mes documents\Mes images\flowRoot42002655.png" sodipodi:type="arc" style="opacity:1;fill:#7e6e4e;fill-opacity:1;fill-rule:nonzero;stroke:#000000;stroke-width:0.60000002;stroke-linecap:square;stroke-linejoin:bevel;stroke-miterlimit:4;stroke-dasharray:none;stroke-opacity:1" id="path11917" sodipodi:cx="855.33453" sodipodi:cy="502.66104" sodipodi:rx="9.8314314" sodipodi:ry="9.8314314" d="M 849.85205,494.5002 A 9.8314314,9.8314314 0 1 1 849.62782,494.65539" sodipodi:start="4.1208385" sodipodi:end="10.376286" sodipodi:open="true" transform="matrix(0.4886873,0,0,0.5023075,-253.76521,58.182907)"/>
  <path style="fill:#2d7035;fill-opacity:1;fill-rule:evenodd;stroke:#000000;stroke-width:0.39653707px;stroke-linecap:butt;stroke-linejoin:miter;stroke-opacity:1" d="M 285.12685,196.93095 C 299.22153,208.92641 299.67138,209.07637 299.67138,209.07637 L 290.52486,177.43832 C 290.52486,177.43832 314.36579,189.88362 314.21584,188.98396 C 314.06595,188.08431 294.72326,162.44399 294.1234,162.59392 C 293.52362,162.74387 270.28246,195.43152 270.28246,195.43152 L 285.12685,196.93095 z " id="path46863" inkscape:export-filename="C:\Documents and Settings\Compte admin\Mes documents\Mes images\flowRoot42002655.png" inkscape:export-xdpi="270" inkscape:export-ydpi="270"/>
  <path style="fill:#544242;fill-opacity:1;fill-rule:evenodd;stroke:#000000;stroke-width:0.39653707px;stroke-linecap:butt;stroke-linejoin:miter;stroke-opacity:1" d="M 160.29749,307.67783 C 169.20366,303.64884 168.14339,311.70681 168.14339,311.70681 L 165.81083,316.79606 L 147.57437,349.02794 L 139.72844,344.3628 L 160.29749,307.67783 z " id="path19675" inkscape:export-filename="C:\Documents and Settings\Compte admin\Mes documents\Mes images\flowRoot42002655.png" inkscape:export-xdpi="270" inkscape:export-ydpi="270"/>
  <path style="fill:#f2c6c6;fill-opacity:1;fill-rule:evenodd;stroke:#000000;stroke-width:0.39653707px;stroke-linecap:butt;stroke-linejoin:miter;stroke-opacity:1" d="M 175.77727,199.3193 C 132.51867,312.13091 136.75971,310.4345 136.75971,310.4345 L 131.67047,335.88072 L 140.15255,353.6931 L 157.96491,351.99667 L 163.05416,343.51459 L 168.14339,332.48789 L 163.90237,327.39865 L 161.35774,327.39865 L 160.84954,329.98842 L 158.75033,327.58931 L 154.55191,329.98842 L 154.85179,332.08762 L 151.55303,332.98729 L 150.65338,336.8858 L 151.85293,341.98387 L 151.25315,342.88353 L 148.55417,341.08421 L 146.45497,334.78659 L 146.45497,332.68739 L 148.67839,328.13763 L 151.25315,323.99067 L 155.75147,316.49351 L 153.05247,311.09555 L 161.4493,296.701 L 177.94308,268.21174 L 180.34217,261.01446 L 181.8416,252.01786 L 186.33989,243.32115 L 175.77727,199.3193 z " id="path17735" inkscape:export-filename="C:\Documents and Settings\Compte admin\Mes documents\Mes images\flowRoot42002655.png" inkscape:export-xdpi="270" inkscape:export-ydpi="270" sodipodi:nodetypes="cccccccccccccccccccccccccccccc"/>
  <path style="fill:#f2c6c6;fill-opacity:1;fill-rule:evenodd;stroke:#000000;stroke-width:0.38099366px;stroke-linecap:butt;stroke-linejoin:miter;stroke-opacity:1" d="M 167.59606,569.14539 C 193.72238,503.35939 193.94019,500.36389 193.94019,500.36389 L 196.17443,472.44412 L 199.6978,459.29612 L 208.31045,430.87951 L 216.9231,394.82856 L 193.43405,306.60979 L 178.94911,320.60604 L 172.29387,351.56744 L 169.55348,381.25642 L 167.98755,414.76264 L 166.42161,435.12086 L 164.07269,443.60337 L 160.54935,457.17543 L 159.76637,466.93045 L 160.15785,474.98892 L 160.54935,480.07856 L 150.76222,535.63929 L 144.49846,571.26609 L 167.59606,569.14539 z " id="path22602" sodipodi:nodetypes="cccccccccccccccccccc" inkscape:export-filename="C:\Documents and Settings\Compte admin\Mes documents\Mes images\flowRoot42002655.png" inkscape:export-xdpi="270" inkscape:export-ydpi="270"/>
  <path sodipodi:type="arc" style="opacity:1;fill:#dad72b;fill-opacity:1;fill-rule:nonzero;stroke:#000000;stroke-width:1.40327013;stroke-linecap:square;stroke-linejoin:bevel;stroke-miterlimit:4;stroke-dasharray:none;stroke-opacity:1" id="path8019" sodipodi:cx="872.72858" sodipodi:cy="90.497177" sodipodi:rx="45.490486" sodipodi:ry="58.078308" d="M 916.68705,105.44275 A 45.490486,58.078308 0 1 1 848.7914,41.109726 L 872.72858,90.497177 z" sodipodi:start="0.2602631" sodipodi:end="4.1582611" transform="matrix(0.4290603,0,0,0.2679967,-230.97121,324.95876)" inkscape:transform-center-y="4.7981849" inkscape:export-filename="C:\Documents and Settings\Compte admin\Mes documents\Mes images\flowRoot42002655.png" inkscape:export-xdpi="270" inkscape:export-ydpi="270" inkscape:transform-center-x="-2.0904865e-005"/>
  <path style="fill:#b9b9b9;fill-opacity:1;fill-rule:evenodd;stroke:#000000;stroke-width:0.39653707px;stroke-linecap:butt;stroke-linejoin:miter;stroke-opacity:1" d="M 138.45612,363.02338 C 12.073178,536.90599 0.19826853,529.27209 0.19826853,529.27209 L 131.67047,357.93413 L 138.45612,363.02338 z " id="path5086" inkscape:export-filename="C:\Documents and Settings\Compte admin\Mes documents\Mes images\flowRoot42002655.png" inkscape:export-xdpi="270" inkscape:export-ydpi="270"/>
  <path sodipodi:type="arc" style="opacity:1;fill:#354f33;fill-opacity:1;fill-rule:nonzero;stroke:#000000;stroke-width:0.75535655;stroke-linecap:square;stroke-linejoin:bevel;stroke-miterlimit:4;stroke-dasharray:none;stroke-opacity:1" id="path10940" sodipodi:cx="865.92218" sodipodi:cy="131.33543" sodipodi:rx="136.88377" sodipodi:ry="18.56039" d="M 789.58912,115.92888 A 136.88377,18.56039 0 1 1 786.4672,116.22186" sodipodi:start="4.1208385" sodipodi:end="10.376286" transform="matrix(0.3510001,2.7206289e-2,0,0.5794268,-77.391932,-61.219813)" sodipodi:open="true" inkscape:export-filename="C:\Documents and Settings\Compte admin\Mes documents\Mes images\flowRoot42002655.png" inkscape:export-xdpi="270" inkscape:export-ydpi="270"/>
  <path style="fill:#f3c6c6;fill-opacity:1;fill-rule:evenodd;stroke:#000000;stroke-width:0.39653707px;stroke-linecap:butt;stroke-linejoin:miter;stroke-opacity:1" d="M 213.92948,89.479257 C 214.69213,94.987091 217.78234,118.26839 217.78234,118.26839 L 212.72994,123.66634 L 205.53266,127.26498 L 199.53492,145.85796 L 210.33084,187.8421 L 255.91362,145.85796 L 257.43823,111.88056 L 254.71407,101.02489 L 254.86402,88.879477 L 258.01282,81.682217 L 261.0117,74.185027 L 263.71068,75.684457 L 266.70955,74.484917 L 268.93586,69.781267 L 272.1075,63.470557 L 272.70728,57.091487 L 273.30702,49.294437 L 271.50774,49.294437 L 267.90909,31.301237 L 251.11544,12.708257 L 233.722,13.308037 L 216.92835,19.905537 L 204.93287,37.298957 L 201.33424,45.695807 L 201.5366,71.288247 L 203.01086,74.962887 L 204.77102,75.478347 L 206.95079,74.632047 L 210.19118,82.484357 L 213.92948,89.479257 z " id="path11911" sodipodi:nodetypes="ccccccccccccccccccccccccccccccc" inkscape:export-filename="C:\Documents and Settings\Compte admin\Mes documents\Mes images\flowRoot42002655.png" inkscape:export-xdpi="270" inkscape:export-ydpi="270"/>
  <path style="fill:#f2c6c6;fill-opacity:1;fill-rule:evenodd;stroke:#000000;stroke-width:0.38100001;stroke-linecap:butt;stroke-linejoin:miter;stroke-miterlimit:4;stroke-dasharray:none;stroke-opacity:1" d="M 288.45155,569.90369 C 264.72697,490.13049 264.9208,486.63441 264.9208,486.63441 L 263.1978,469.48882 L 260.5389,452.05191 C 260.5389,452.05191 236.11151,393.45809 230.26995,323.98604 C 228.20901,299.47615 213.32387,314.98907 213.32387,314.98907 L 233.65915,307.79148 L 260.20802,295.1957 L 270.75627,308.21332 C 270.75627,308.21332 286.44794,343.91501 294.19708,439.80755 C 294.35731,441.78249 297.4894,452.94285 297.4894,452.94285 L 298.61915,462.89101 L 299.51486,479.08555 L 308.78683,560.30679 L 311.04623,568.70409 L 288.45155,569.90369 z " id="path25517" sodipodi:nodetypes="ccccsccccscccccc" inkscape:export-filename="C:\Documents and Settings\Compte admin\Mes documents\Mes images\flowRoot42002655.png" inkscape:export-xdpi="270" inkscape:export-ydpi="270"/>
  <path style="fill:#4c8a48;fill-opacity:1;fill-rule:evenodd;stroke:#000000;stroke-width:0.39653707px;stroke-linecap:butt;stroke-linejoin:miter;stroke-opacity:1" d="M 183.41113,322.30941 L 185.10755,340.96997 L 195.28605,374.05008 L 216.49124,422.3979 L 229.21436,388.46963 L 234.3036,363.02338 L 236.84823,324.00581 L 245.33031,347.75564 L 267.3837,377.44291 L 275.86577,344.3628 L 273.22924,320.25951 L 290.80712,346.53494 L 285.95234,314.502 L 294.969,329.66235 L 272.47298,278.20261 L 271.62477,258.69383 L 268.23192,240.88146 L 282.65144,213.73881 L 295.3746,218.82807 L 281.8032,186.59617 L 307.24948,206.10494 L 293.67805,165.39097 L 328.45463,187.44439 L 309.79416,158.60531 L 338.63315,178.9623 L 287.74068,130.61446 L 269.08012,123.82879 L 260.59804,106.01644 L 250.41954,113.6503 L 237.69644,119.58777 L 236.84823,131.46268 L 219.88407,157.7571 L 213.09841,173.02484 L 209.70558,156.90889 L 209.70558,133.15908 L 209.70558,120.43597 L 213.09841,113.6503 L 216.53828,111.85539 L 208.45179,117.04313 L 204.21076,127.84853 L 184.25935,136.55192 L 177.47369,144.18579 L 155.42028,189.14079 L 167.29519,182.35513 L 163.90237,200.16749 L 171.53623,193.38183 L 171.53623,206.10494 L 179.17009,226.46193 L 184.25935,243.4261 L 184.25935,262.08665 L 181.71472,278.20261 L 168.14339,305.34525 L 159.66131,352.84488 L 183.41113,322.30941 z " id="path4105" sodipodi:nodetypes="cccccccccccccccccccccccccccccccccccccccccccccccccccccc" inkscape:export-filename="C:\Documents and Settings\Compte admin\Mes documents\Mes images\flowRoot42002655.png" inkscape:export-xdpi="270" inkscape:export-ydpi="270"/>
  <path style="fill:#6d655b;fill-opacity:0.7181208;fill-rule:evenodd;stroke:#000000;stroke-width:0.23792231;stroke-linecap:butt;stroke-linejoin:miter;stroke-miterlimit:4;stroke-dasharray:none;stroke-opacity:1" d="M 184.22939,254.67524 C 270.32247,263.58142 269.8728,256.97968 269.8728,256.97968 L 271.25578,281.37489 C 271.25578,281.37489 181.70433,279.45211 182.16824,275.98576 C 183.76616,264.04615 185.12905,263.64611 184.22939,254.67524 z " id="path37151" sodipodi:nodetypes="cccsc" inkscape:export-filename="C:\Documents and Settings\Compte admin\Mes documents\Mes images\flowRoot42002655.png" inkscape:export-xdpi="270" inkscape:export-ydpi="270"/>
  <path style="fill:#f2c6c6;fill-opacity:1;fill-rule:evenodd;stroke:#000000;stroke-width:0.39653707px;stroke-linecap:butt;stroke-linejoin:miter;stroke-opacity:1" d="M 302.70851,191.53547 C 323.91372,207.65142 326.7583,204.40854 326.7583,204.40854 L 317.42794,221.37268 L 294.52637,255.30101 L 287.74068,258.69383 L 284.34784,260.39024 L 274.16938,252.75637 L 265.99622,251.72841 L 261.88888,254.58648 L 263.99087,258.69383 L 259.43638,263.60782 L 259.86974,268.23616 L 257.36193,271.79497 L 259.66695,275.62116 L 259.0308,279.71474 L 263.20725,282.95988 L 265.24257,284.07295 L 265.13884,286.32042 L 267.04998,288.75694 L 271.75909,289.33526 L 280.95508,288.3811 L 294.52637,279.89901 L 305.55306,270.56874 L 308.94584,265.47948 L 345.41884,228.15835 L 352.2044,218.82807 L 356.54396,214.83546 L 359.83836,207.80136 L 357.29378,200.16749 L 350.50807,191.68542 L 336.43991,176.82046 L 337.78493,178.11409 L 309.71691,158.55387 L 328.87876,187.86848 L 293.80239,165.39097 L 302.70851,191.53547 z " id="path6075" inkscape:export-filename="C:\Documents and Settings\Compte admin\Mes documents\Mes images\flowRoot42002655.png" inkscape:export-xdpi="270" inkscape:export-ydpi="270" sodipodi:nodetypes="cccccccccccccccccccccccccccccccccccc"/>
  <path style="fill:#1d431d;fill-opacity:1;fill-rule:evenodd;stroke:#000000;stroke-width:0.39653707px;stroke-linecap:butt;stroke-linejoin:miter;stroke-opacity:1" d="M 214.60065,125.09493 C 208.17232,134.42342 209.49621,142.74899 209.49621,142.74899 L 209.88101,125.46567 L 209.58112,120.51754 L 212.87988,113.92003 L 216.62847,111.52093 L 217.59981,119.22694 L 214.60065,125.09493 z " id="path21617" inkscape:export-filename="C:\Documents and Settings\Compte admin\Mes documents\Mes images\flowRoot42002655.png" inkscape:export-xdpi="270" inkscape:export-ydpi="270" sodipodi:nodetypes="cccccccc"/>
  <path sodipodi:type="arc" style="opacity:1;fill:#746c58;fill-opacity:1;fill-rule:nonzero;stroke:#000000;stroke-width:0.60000002;stroke-linecap:square;stroke-linejoin:bevel;stroke-miterlimit:4;stroke-dasharray:none;stroke-opacity:1" id="path40060" sodipodi:cx="855.33453" sodipodi:cy="502.66104" sodipodi:rx="9.8314314" sodipodi:ry="9.8314314" d="M 849.85205,494.5002 A 9.8314314,9.8314314 0 1 1 849.62782,494.65539" sodipodi:start="4.1208385" sodipodi:end="10.376286" sodipodi:open="true" transform="matrix(0.3965371,0,0,0.3965371,-124.9425,-13.580863)" inkscape:export-filename="C:\Documents and Settings\Compte admin\Mes documents\Mes images\flowRoot42002655.png" inkscape:export-xdpi="270" inkscape:export-ydpi="270"/>
  <path transform="matrix(0.3965371,0,0,0.3965371,-123.74296,9.210537)" sodipodi:open="true" sodipodi:end="10.376286" sodipodi:start="4.1208385" d="M 849.85205,494.5002 A 9.8314314,9.8314314 0 1 1 849.62782,494.65539" sodipodi:ry="9.8314314" sodipodi:rx="9.8314314" sodipodi:cy="502.66104" sodipodi:cx="855.33453" id="path42000" style="opacity:1;fill:#766b56;fill-opacity:1;fill-rule:nonzero;stroke:#000000;stroke-width:0.60000002;stroke-linecap:square;stroke-linejoin:bevel;stroke-miterlimit:4;stroke-dasharray:none;stroke-opacity:1" sodipodi:type="arc" inkscape:export-filename="C:\Documents and Settings\Compte admin\Mes documents\Mes images\flowRoot42002655.png" inkscape:export-xdpi="270" inkscape:export-ydpi="270"/>
  <flowRoot xml:space="preserve" id="flowRoot42002" inkscape:export-xdpi="270" inkscape:export-ydpi="270" transform="translate(-8.2169766,-5.895559)"><flowRegion id="flowRegion42004"><rect id="rect42006" width="1741.1765" height="427.8075" x="-55.614975" y="1651.3369"/></flowRegion><flowPara id="flowPara42008"/></flowRoot>  <path style="fill:none;fill-rule:evenodd;stroke:#000000;stroke-width:0.28520858;stroke-linecap:butt;stroke-linejoin:miter;stroke-miterlimit:4;stroke-dasharray:none;stroke-opacity:1" d="M 213.9333,89.233527 C 226.5262,97.783471 228.42807,97.930541 228.42807,97.930541 L 234.99109,99.459541 L 242.1174,97.150141 C 242.1174,97.150141 254.93517,89.866837 254.93517,88.283527" id="path51728" sodipodi:nodetypes="ccccc" inkscape:export-filename="C:\Documents and Settings\Compte admin\Mes documents\Mes images\flowRoot42002655.png" inkscape:export-xdpi="270" inkscape:export-ydpi="270"/>
  <path style="fill:#f2c6c6;fill-opacity:1;fill-rule:evenodd;stroke:#000000;stroke-width:0.38100001;stroke-linecap:butt;stroke-linejoin:miter;stroke-miterlimit:4;stroke-dasharray:none;stroke-opacity:1" d="M 172.72301,555.94199 C 165.54478,576.09609 167.73152,583.73289 167.73152,583.73289 L 169.24475,590.61709 L 171.09176,597.26749 L 172.5569,604.44189 L 172.121,608.84819 L 170.30458,612.68479 L 167.10761,615.95129 L 163.96168,617.13169 L 159.76906,617.50779 L 153.3387,617.14629 L 146.24352,615.45709 L 139.10025,614.05759 L 134.42947,615.53789 L 127.32568,619.23619 L 122.89246,621.06299 L 117.17495,621.73959 L 111.64983,621.25639 L 108.122,622.96019 L 103.9293,623.33699 L 100.96057,622.76559 L 98.706103,621.26539 L 96.415623,621.24009 L 94.699363,620.26829 L 92.308873,619.58809 L 89.484368,616.49419 L 89.084428,613.87459 L 90.806878,611.03629 L 92.965523,609.34129 L 95.289973,609.16189 L 104.66017,605.49209 L 116.05691,598.40839 L 127.75783,590.74859 L 137.24536,583.78829 L 141.78361,576.10099 L 146.68364,558.36379 L 147.43991,554.96059" id="path2203" sodipodi:nodetypes="ccccccccccccccccccccccccccccccccccccc" inkscape:export-filename="C:\Documents and Settings\Compte admin\Mes documents\Mes images\flowRoot42002655.png" inkscape:export-xdpi="270" inkscape:export-ydpi="270"/>
  <path sodipodi:nodetypes="cccccccccccccsssccccccccccccccccccccccccccccccc" id="path7066" d="M 307.0096,545.30949 L 313.77548,576.27919 L 318.25947,585.59269 L 321.82246,591.79439 L 329.82818,603.30439 L 341.72812,614.33279 C 342.10719,615.20359 347.92095,617.60309 348.22974,617.65649 L 349.61913,617.88589 L 351.78787,618.82669 L 352.29378,620.44979 L 351.77032,622.52739 L 350.29666,623.24089 L 349.94479,624.77839 C 349.46449,624.72289 347.73034,626.33741 347.55372,626.27929 C 346.77663,626.02357 345.60336,625.86388 345.64544,625.79042 C 345.77447,625.56513 345.42815,625.99636 345.46382,626.27759 C 345.51827,626.70696 344.06774,627.87179 344.53763,627.66469 L 342.30925,628.54179 L 340.96081,627.67999 L 340.44729,629.76539 L 337.63514,630.67479 L 334.40221,629.49889 L 332.31629,627.12569 L 330.95659,630.49709 L 327.06305,632.10169 L 321.54741,631.10349 L 319.87098,628.08709 L 317.37555,627.88799 L 311.67437,626.06909 L 308.19033,621.93529 L 303.43934,618.08309 L 297.10471,618.26059 L 292.57769,617.74309 L 287.28602,615.45869 L 284.75216,612.12409 L 284.75216,608.48619 L 286.96929,600.60409 L 288.55295,597.57259 L 288.23622,595.55789 L 286.89803,593.07049 L 286.73087,590.47589 L 287.91948,588.47789 L 289.18641,585.44639 L 289.18641,581.20219 L 288.86968,577.56449 L 284.33302,557.85939 L 282.01835,547.96869" style="fill:#f2c6c6;fill-opacity:1;fill-rule:evenodd;stroke:#000000;stroke-width:0.38100001;stroke-linecap:butt;stroke-linejoin:miter;stroke-miterlimit:4;stroke-dasharray:none;stroke-opacity:1" inkscape:export-filename="C:\Documents and Settings\Compte admin\Mes documents\Mes images\flowRoot42002655.png" inkscape:export-xdpi="270" inkscape:export-ydpi="270"/>
  <path style="fill:#c71717;fill-opacity:0.49019608;fill-rule:evenodd;stroke:none;stroke-width:0.1;stroke-linecap:butt;stroke-linejoin:miter;stroke-miterlimit:4;stroke-dasharray:none;stroke-opacity:1" d="M 225.47284,79.478747 C 233.88858,76.561457 234.56375,77.889737 234.56375,77.889737 C 234.56375,77.889737 234.35864,78.135747 234.56375,77.889737 C 235.59052,76.658237 240.84718,77.400817 240.84718,77.400817 C 240.84718,77.400817 239.68348,77.539177 241.08351,77.400817 C 246.17491,76.897657 246.2363,75.894877 245.53443,76.639717 C 245.44971,76.729627 244.1637,77.655237 244.1637,77.655237 C 244.1637,77.655237 244.59049,77.645277 241.24824,78.867587 C 237.906,80.089907 232.29103,80.334367 232.29103,80.334367 L 225.47284,79.478747 z " id="path9977" sodipodi:nodetypes="ccscsscscc" inkscape:export-filename="C:\Documents and Settings\Compte admin\Mes documents\Mes images\flowRoot42002655.png" inkscape:export-xdpi="270" inkscape:export-ydpi="270"/>
  <path transform="matrix(1.2589444,-6.734033e-2,6.270524e-2,0.9502539,-830.32153,-426.87167)" sodipodi:open="true" sodipodi:end="9.7337894" sodipodi:start="3.6787156" d="M 825.16369,560.98416 A 4.010695,3.8770053 0 1 1 824.78889,561.78883" sodipodi:ry="3.8770053" sodipodi:rx="4.010695" sodipodi:cy="562.9679" sodipodi:cx="828.60962" id="path41072" style="opacity:1;fill:#ffffff;fill-opacity:0.83892619;fill-rule:nonzero;stroke:none;stroke-width:0.30000001;stroke-linecap:square;stroke-linejoin:bevel;stroke-miterlimit:4;stroke-dasharray:none;stroke-opacity:1" sodipodi:type="arc" inkscape:export-filename="C:\Documents and Settings\Compte admin\Mes documents\Mes images\flowRoot42002655.png" inkscape:export-xdpi="270" inkscape:export-ydpi="270"/>
  <path transform="matrix(0.9194953,0,0,0.8581455,-514.58678,-430.74809)" sodipodi:open="true" sodipodi:end="9.7337894" sodipodi:start="3.6787156" d="M 826.29353,562.40507 A 2.540107,2.4064171 0 1 1 826.05616,562.90452" sodipodi:ry="2.4064171" sodipodi:rx="2.540107" sodipodi:cy="563.63635" sodipodi:cx="828.47595" id="path41074" style="opacity:1;fill:#5b3d1d;fill-opacity:0.75838922;fill-rule:nonzero;stroke:#554933;stroke-width:0.30000001;stroke-linecap:square;stroke-linejoin:bevel;stroke-miterlimit:4;stroke-dasharray:none;stroke-opacity:1" sodipodi:type="arc" inkscape:export-filename="C:\Documents and Settings\Compte admin\Mes documents\Mes images\flowRoot42002655.png" inkscape:export-xdpi="270" inkscape:export-ydpi="270"/>
  <path sodipodi:nodetypes="cccsc" id="path41076" d="M 240.80556,53.577247 C 244.95585,47.363317 249.08749,48.544647 249.26417,48.662727 C 252.98487,48.592847 255.41045,53.708817 254.74997,52.448897 C 254.97696,53.329147 250.07742,56.166347 249.25384,56.185017 C 246.09565,56.254867 241.8657,54.285467 240.80556,53.577247 z " style="fill:none;fill-rule:evenodd;stroke:#5c513e;stroke-width:0.32870725;stroke-linecap:butt;stroke-linejoin:miter;stroke-miterlimit:4;stroke-dasharray:none;stroke-opacity:1" inkscape:export-filename="C:\Documents and Settings\Compte admin\Mes documents\Mes images\flowRoot42002655.png" inkscape:export-xdpi="270" inkscape:export-ydpi="270"/>
  <path sodipodi:nodetypes="ccssccccccscccc" id="path41078" d="M 241.18509,53.727437 C 245.92439,47.086557 250.88241,49.921987 250.88241,49.921987 C 250.88241,49.921987 254.30928,52.085877 254.09055,52.384347 C 253.65308,52.981287 250.2262,55.742087 247.96593,55.667487 C 245.62373,55.590157 241.1851,53.727447 241.1851,53.727447 L 240.31015,55.219767 L 245.55982,58.428297 L 256.86121,57.607517 L 257.95489,51.041227 L 254.30928,44.922667 C 254.30928,44.922667 244.97653,43.803397 244.61197,43.878027 C 244.24741,43.952657 237.61239,46.788087 237.61239,46.788087 L 237.53948,51.638157 L 239.87266,53.802057 L 241.18509,53.727437 z " style="fill:#f4c7c7;fill-opacity:0.96078431;fill-rule:evenodd;stroke:none;stroke-width:1px;stroke-linecap:butt;stroke-linejoin:miter;stroke-opacity:1" inkscape:export-filename="C:\Documents and Settings\Compte admin\Mes documents\Mes images\flowRoot42002655.png" inkscape:export-xdpi="270" inkscape:export-ydpi="270"/>
  <path sodipodi:type="arc" style="opacity:1;fill:#ffffff;fill-opacity:0.83892619;fill-rule:nonzero;stroke:none;stroke-width:0.30000001;stroke-linecap:square;stroke-linejoin:bevel;stroke-miterlimit:4;stroke-dasharray:none;stroke-opacity:1" id="path44964" sodipodi:cx="828.60962" sodipodi:cy="562.9679" sodipodi:rx="4.010695" sodipodi:ry="3.8770053" d="M 825.16369,560.98416 A 4.010695,3.8770053 0 1 1 824.78889,561.78883" sodipodi:start="3.6787156" sodipodi:end="9.7337894" sodipodi:open="true" transform="matrix(-1.2589444,-6.734033e-2,-6.270524e-2,0.9502539,1299.6396,-426.52597)" inkscape:export-filename="C:\Documents and Settings\Compte admin\Mes documents\Mes images\flowRoot42002655.png" inkscape:export-xdpi="270" inkscape:export-ydpi="270"/>
  <path sodipodi:type="arc" style="opacity:1;fill:#5b3d1d;fill-opacity:0.76470588;fill-rule:nonzero;stroke:#6a5c44;stroke-width:0.30000001;stroke-linecap:square;stroke-linejoin:bevel;stroke-miterlimit:4;stroke-dasharray:none;stroke-opacity:1" id="path44966" sodipodi:cx="828.47595" sodipodi:cy="563.63635" sodipodi:rx="2.540107" sodipodi:ry="2.4064171" d="M 826.29353,562.40507 A 2.540107,2.4064171 0 1 1 826.05616,562.90452" sodipodi:start="3.6787156" sodipodi:end="9.7337894" sodipodi:open="true" transform="matrix(-0.9194953,0,0,0.8581455,984.28297,-430.4024)" inkscape:export-filename="C:\Documents and Settings\Compte admin\Mes documents\Mes images\flowRoot42002655.png" inkscape:export-xdpi="270" inkscape:export-ydpi="270"/>
  <path style="fill:none;fill-rule:evenodd;stroke:#5c513e;stroke-width:0.32870725;stroke-linecap:butt;stroke-linejoin:miter;stroke-miterlimit:4;stroke-dasharray:none;stroke-opacity:1" d="M 228.51247,53.922937 C 224.36218,47.709007 220.23054,48.890337 220.05386,49.008417 C 216.33316,48.938537 213.90758,54.054507 214.56806,52.794587 C 214.34107,53.674837 219.24061,56.512037 220.06419,56.530707 C 223.22238,56.600557 227.45233,54.631157 228.51247,53.922937 z " id="path44968" sodipodi:nodetypes="cccsc" inkscape:export-filename="C:\Documents and Settings\Compte admin\Mes documents\Mes images\flowRoot42002655.png" inkscape:export-xdpi="270" inkscape:export-ydpi="270"/>
  <path style="fill:#f4c7c7;fill-opacity:0.96078431;fill-rule:evenodd;stroke:none;stroke-width:1px;stroke-linecap:butt;stroke-linejoin:miter;stroke-opacity:1" d="M 228.13294,54.073127 C 223.39364,47.432247 218.43562,50.267677 218.43562,50.267677 C 218.43562,50.267677 215.00875,52.431567 215.22748,52.730037 C 215.66495,53.326977 219.09183,56.087777 221.3521,56.013177 C 223.6943,55.935847 228.13293,54.073137 228.13293,54.073137 L 229.00788,55.565457 L 223.75821,58.773987 L 212.45682,57.953207 L 211.36314,51.386917 L 215.00875,45.268357 C 215.00875,45.268357 224.3415,44.149087 224.70606,44.223717 C 225.07062,44.298347 231.70564,47.133777 231.70564,47.133777 L 231.77855,51.983847 L 229.44537,54.147747 L 228.13294,54.073127 z " id="path44970" sodipodi:nodetypes="ccssccccccscccc" inkscape:export-filename="C:\Documents and Settings\Compte admin\Mes documents\Mes images\flowRoot42002655.png" inkscape:export-xdpi="270" inkscape:export-ydpi="270"/>
  <path style="fill:none;fill-rule:evenodd;stroke:#9b754e;stroke-width:1px;stroke-linecap:butt;stroke-linejoin:miter;stroke-opacity:0.57718123" d="M 254.248,44.612247 C 248.18283,37.427737 241.76964,42.154387 241.76964,42.154387 L 241.76964,42.154387 L 241.76964,41.965317" id="path44974" sodipodi:nodetypes="cccc" inkscape:export-filename="C:\Documents and Settings\Compte admin\Mes documents\Mes images\flowRoot42002655.png" inkscape:export-xdpi="270" inkscape:export-ydpi="270"/>
  <path style="fill:#a2672b;fill-opacity:1;fill-rule:evenodd;stroke:#000000;stroke-width:0.382;stroke-linecap:butt;stroke-linejoin:miter;stroke-miterlimit:4;stroke-dasharray:none;stroke-opacity:1" d="M 274.34675,57.767147 C 280.99275,-18.896833 193.92335,-2.0957633 198.71812,50.859817 C 203.7218,106.12262 209.197,51.536587 209.197,51.536587 C 209.197,51.536587 213.26369,94.072907 216.50353,55.870047 C 218.42745,33.184307 222.5617,86.881117 223.35478,56.046217 C 224.14786,25.211327 231.96103,80.629057 230.37488,51.134807 C 228.78873,21.640567 243.24794,31.624527 243.24794,31.624527 C 243.24794,31.624527 255.67899,71.069247 253.05129,47.536117 C 250.92152,28.462187 259.56478,76.811217 261.15093,52.679557 C 262.73707,28.547917 261.57296,75.079077 267.59814,51.233637 C 270.33665,40.395647 270.60154,57.668327 274.34675,57.767147 z " id="path8998" sodipodi:nodetypes="cscssscsssc" inkscape:export-filename="C:\Documents and Settings\Compte admin\Mes documents\Mes images\flowRoot42002655.png" inkscape:export-xdpi="270" inkscape:export-ydpi="270"/>
  <path style="fill:#237f26;fill-opacity:1;fill-rule:evenodd;stroke:#000000;stroke-width:0.35257334px;stroke-linecap:butt;stroke-linejoin:miter;stroke-opacity:1" d="M 252.32216,0.17628667 C 167.78917,22.271317 178.9803,36.600257 178.9803,36.600257 C 178.9803,36.600257 241.64032,13.846777 275.61936,42.262047 C 280.65192,46.470637 265.94132,2.8066467 252.32216,0.17628667 z " id="path7046" sodipodi:nodetypes="ccsc" inkscape:export-filename="C:\Documents and Settings\Compte admin\Mes documents\Mes images\flowRoot42002655.png" inkscape:export-xdpi="270" inkscape:export-ydpi="270"/>
  <path style="fill:#d30606;fill-opacity:1;fill-rule:evenodd;stroke:#ed0000;stroke-width:0.86564052;stroke-linecap:butt;stroke-linejoin:miter;stroke-miterlimit:4;stroke-dasharray:none;stroke-opacity:1" d="M 257.50639,22.257477 C 278.6564,16.601047 263.708,20.274047 268.71276,19.286127 C 273.3462,18.371517 273.14659,19.004997 273.14659,19.004997 C 273.14659,19.004997 291.35275,18.014927 283.31019,17.658967 C 276.97881,17.378737 276.53381,16.815287 276.53381,16.815287 C 276.53381,16.815287 292.6437,17.591247 289.74305,16.895627 C 284.32379,15.596027 280.9368,15.608087 280.9368,15.608087 C 283.98154,16.749677 310.28009,10.968337 285.67866,13.670697 C 280.53223,14.238577 291.43074,13.770497 297.87195,9.771707 C 306.77992,4.241397 288.04962,11.556157 288.04962,11.556157 C 288.04962,11.556157 307.83866,2.4768467 302.61369,3.7797967 C 291.02171,6.670487 283.98518,11.328047 283.98518,11.328047 C 283.98518,11.328047 298.88798,2.8214767 294.14615,4.230027 C 280.90892,8.162127 278.90463,12.937927 278.90463,12.937927 C 278.90463,12.937927 281.38631,11.075637 282.96904,7.172417 C 284.45657,3.5043267 273.89065,14.939307 273.4854,15.454277 C 270.09828,19.759397 279.9207,8.103097 277.54988,9.159927 C 271.86801,11.692667 270.98051,14.344447 267.72749,16.585437 C 263.56988,19.449637 265.29652,19.213117 257.50639,22.257477 z " id="path14826" sodipodi:nodetypes="cscscscsscscscssssc" inkscape:export-filename="C:\Documents and Settings\Compte admin\Mes documents\Mes images\flowRoot42002655.png" inkscape:export-xdpi="270" inkscape:export-ydpi="270"/>
  <path style="fill:#e88c8c;fill-opacity:1;fill-rule:evenodd;stroke:#ef9191;stroke-width:0.45214918;stroke-linecap:butt;stroke-linejoin:miter;stroke-miterlimit:4;stroke-dasharray:none;stroke-opacity:0.65771813" d="M 231.20651,69.786467 C 229.60648,69.507317 230.4603,68.693617 230.92492,68.687667 C 231.69516,68.677807 232.54606,70.244297 234.5413,70.152727 C 236.53654,70.061167 236.53656,68.229847 237.78359,68.596117 C 239.03062,68.962367 237.65887,69.878047 237.16006,69.694907 C 236.66126,69.511777 236.78595,69.511777 236.78595,69.511777" id="path44976" sodipodi:nodetypes="cssssc" inkscape:export-filename="C:\Documents and Settings\Compte admin\Mes documents\Mes images\flowRoot42002655.png" inkscape:export-xdpi="270" inkscape:export-ydpi="270"/>
  <path style="fill:#f5cece;fill-opacity:1;fill-rule:evenodd;stroke:#fcc5c5;stroke-width:0.30000001;stroke-linecap:butt;stroke-linejoin:miter;stroke-miterlimit:4;stroke-dasharray:none;stroke-opacity:1" d="M 233.11177,69.564197 C 235.00242,70.131397 235.56962,69.422397 235.56962,69.422397" id="path49823" sodipodi:nodetypes="cc" inkscape:export-filename="C:\Documents and Settings\Compte admin\Mes documents\Mes images\flowRoot42002655.png" inkscape:export-xdpi="270" inkscape:export-ydpi="270"/>
  <path style="fill:none;fill-rule:evenodd;stroke:#000000;stroke-width:0;stroke-linecap:butt;stroke-linejoin:miter;stroke-miterlimit:4;stroke-dasharray:none;stroke-opacity:1" d="M 323.29624,625.51269 C 329.91355,629.76669 331.14248,626.74169 331.14248,626.74169 L 330.10262,625.70179 L 328.21196,625.32369 L 326.3213,625.04009 L 323.29624,625.51269 z " id="path56608" inkscape:export-filename="C:\Documents and Settings\Compte admin\Mes documents\Mes images\flowRoot42002655.png" inkscape:export-xdpi="270" inkscape:export-ydpi="270"/>
  <path style="fill:none;fill-rule:evenodd;stroke:#bc4c4c;stroke-width:0.30000001;stroke-linecap:butt;stroke-linejoin:miter;stroke-miterlimit:4;stroke-dasharray:none;stroke-opacity:0.21476512" d="M 323.86344,626.07989 C 329.34636,627.78149 329.72449,626.74169 329.72449,626.74169 L 330.29169,626.36349 L 329.34636,625.70179 L 327.83383,625.22909 L 326.51037,625.13459 L 325.18691,625.51269 L 323.86344,626.07989 z " id="path57581" inkscape:export-filename="C:\Documents and Settings\Compte admin\Mes documents\Mes images\flowRoot42002655.png" inkscape:export-xdpi="270" inkscape:export-ydpi="270"/>
  <path style="fill:none;fill-rule:evenodd;stroke:#d39292;stroke-width:0.30000001;stroke-linecap:butt;stroke-linejoin:miter;stroke-miterlimit:4;stroke-dasharray:none;stroke-opacity:0.2348993" d="M 262.64337,68.689907 C 263.31181,64.478677 265.78033,66.885097 265.98087,67.219317 C 266.1814,67.553547 266.51563,67.820927 266.51563,67.754077 C 266.51563,67.687237 269.99156,63.676537 269.32311,59.799537 C 268.65466,55.922527 268.65466,55.922527 268.65466,55.922527" id="path58554" sodipodi:nodetypes="csssc" inkscape:export-filename="C:\Documents and Settings\Compte admin\Mes documents\Mes images\flowRoot42002655.png" inkscape:export-xdpi="270" inkscape:export-ydpi="270"/>
  <path style="fill:none;fill-rule:evenodd;stroke:#bd4d4d;stroke-width:0.30000001;stroke-linecap:butt;stroke-linejoin:miter;stroke-miterlimit:4;stroke-dasharray:none;stroke-opacity:0.21476512" d="M 148.4102,344.74974 C 152.94779,348.72013 149.8282,350.04359 149.8282,350.04359 L 145.85781,349.00373 L 145.57421,347.68026 L 146.99221,345.50601 L 148.4102,344.74974 z " id="path62438" inkscape:export-filename="C:\Documents and Settings\Compte admin\Mes documents\Mes images\flowRoot42002655.png" inkscape:export-xdpi="270" inkscape:export-ydpi="270"/>
  <path style="fill:none;fill-rule:evenodd;stroke:#be4f4f;stroke-width:0.30000001;stroke-linecap:butt;stroke-linejoin:miter;stroke-miterlimit:4;stroke-dasharray:none;stroke-opacity:0.21476512" d="M 155.59471,334.54018 C 156.63457,336.52537 156.63457,336.6199 156.63457,336.6199 L 156.06738,337.1871 L 154.55485,337.65977 L 153.79858,337.56523 L 153.23139,335.58004 L 153.23139,334.25658 L 154.08218,333.78391 L 155.12205,333.68938 L 155.59471,334.54018 z " id="path62446" inkscape:export-filename="C:\Documents and Settings\Compte admin\Mes documents\Mes images\flowRoot42002655.png" inkscape:export-xdpi="270" inkscape:export-ydpi="270"/>
  <path style="fill:none;fill-rule:evenodd;stroke:#000000;stroke-width:0.38;stroke-linecap:butt;stroke-linejoin:miter;stroke-miterlimit:4;stroke-dasharray:none;stroke-opacity:1" d="M 264.24293,258.54289 C 270.92742,258.54289 267.98624,263.62311 267.98624,263.62311" id="path2200" sodipodi:nodetypes="cc" inkscape:export-filename="C:\Documents and Settings\Compte admin\Mes documents\Mes images\flowRoot42002655.png" inkscape:export-xdpi="270" inkscape:export-ydpi="270"/>
  <path style="fill:none;fill-rule:evenodd;stroke:#000000;stroke-width:0.38;stroke-linecap:butt;stroke-linejoin:miter;stroke-miterlimit:4;stroke-dasharray:none;stroke-opacity:1" d="M 265.57983,263.35573 C 267.58517,262.95465 271.46218,265.36107 271.46218,265.36107 L 271.46218,265.36107" id="path3176" sodipodi:nodetypes="ccc" inkscape:export-filename="C:\Documents and Settings\Compte admin\Mes documents\Mes images\flowRoot42002655.png" inkscape:export-xdpi="270" inkscape:export-ydpi="270"/>
  <path style="fill:none;fill-rule:evenodd;stroke:#000000;stroke-width:0.38;stroke-linecap:butt;stroke-linejoin:miter;stroke-miterlimit:4;stroke-dasharray:none;stroke-opacity:1" d="M 268.4427,260.50908 C 274.32505,263.18288 271.11649,264.91413 271.11649,264.91413" id="path4149" sodipodi:nodetypes="cc" inkscape:export-filename="C:\Documents and Settings\Compte admin\Mes documents\Mes images\flowRoot42002655.png" inkscape:export-xdpi="270" inkscape:export-ydpi="270"/>
  <path style="fill:#527658;fill-opacity:0.64093957;fill-rule:evenodd;stroke:none;stroke-width:1px;stroke-linecap:butt;stroke-linejoin:miter;stroke-opacity:1" d="M 268.6547,260.74877 C 268.78839,264.02418 267.98625,263.55626 267.98625,263.55626 L 271.12796,264.89316 L 271.79641,263.62311 C 271.79641,263.62311 271.66272,263.0215 270.72689,262.15252 C 269.88414,261.36997 268.92208,260.94931 268.6547,260.74877 z " id="path5122" sodipodi:nodetypes="ccccsc" inkscape:export-filename="C:\Documents and Settings\Compte admin\Mes documents\Mes images\flowRoot42002655.png" inkscape:export-xdpi="270" inkscape:export-ydpi="270"/>
  <path style="fill:none;fill-rule:evenodd;stroke:#000000;stroke-width:0.30000001;stroke-linecap:butt;stroke-linejoin:miter;stroke-miterlimit:4;stroke-dasharray:none;stroke-opacity:1" d="M 151.00763,342.90118 C 155.4194,349.71937 151.4087,350.6552 151.4087,350.6552" id="path9978" inkscape:export-filename="C:\Documents and Settings\Compte admin\Mes documents\Mes images\flowRoot42002655.png" inkscape:export-xdpi="270" inkscape:export-ydpi="270"/>
  <path style="fill:none;fill-opacity:1;fill-rule:evenodd;stroke:#bd4e4e;stroke-width:0.30000001;stroke-linecap:butt;stroke-linejoin:miter;stroke-miterlimit:4;stroke-dasharray:none;stroke-opacity:0.21476512" d="M 107.46865,616.76669 C 102.38844,619.30679 101.51945,617.43519 101.51945,617.43519 L 100.98469,617.03409 L 104.99539,616.03139 L 106.59966,616.09829 L 107.46865,616.76669 z " id="path10949" sodipodi:nodetypes="cccccc" inkscape:export-filename="C:\Documents and Settings\Compte admin\Mes documents\Mes images\flowRoot42002655.png" inkscape:export-xdpi="270" inkscape:export-ydpi="270"/>
  <path style="fill:none;fill-rule:evenodd;stroke:#923030;stroke-width:0.30000001;stroke-linecap:butt;stroke-linejoin:miter;stroke-miterlimit:4;stroke-dasharray:none;stroke-opacity:0.18120805" d="M 89.799778,613.69609 C 90.745108,613.79059 91.077368,613.41249 91.077368,613.41249 L 91.533808,612.46719 L 90.745108,612.27809 L 90.177908,612.56169 L 89.799778,613.69609 z " id="path13864" sodipodi:nodetypes="cccccc" inkscape:export-filename="C:\Documents and Settings\Compte admin\Mes documents\Mes images\flowRoot42002655.png" inkscape:export-xdpi="270" inkscape:export-ydpi="270"/>
  <path style="fill:none;fill-rule:evenodd;stroke:#bd4d4d;stroke-width:0.30000001;stroke-linecap:butt;stroke-linejoin:miter;stroke-miterlimit:4;stroke-dasharray:none;stroke-opacity:0.21568627" d="M 337.47623,625.32369 C 336.62543,625.32369 335.6801,625.89089 335.6801,625.89089 L 335.20743,626.64709 L 336.05823,627.02519 L 337.57076,627.21429 L 338.79969,626.64709 L 339.36689,626.17449 L 338.61062,625.60729 L 337.47623,625.32369 z " id="path22591" inkscape:export-filename="C:\Documents and Settings\Compte admin\Mes documents\Mes images\flowRoot42002655.png" inkscape:export-xdpi="270" inkscape:export-ydpi="270"/>
  <path style="fill:none;fill-rule:evenodd;stroke:#bc4c4c;stroke-width:0.30000001;stroke-linecap:butt;stroke-linejoin:miter;stroke-miterlimit:4;stroke-dasharray:none;stroke-opacity:0.21140939" d="M 340.78488,625.04009 L 341.44661,625.60729 L 342.39194,625.60729 L 343.4318,625.13459 L 344.09354,624.66189 L 344.18807,624.28379 L 343.33727,624.00019 L 342.39194,623.81109 L 341.73021,624.18929 L 341.35208,624.56739 L 340.78488,625.04009 z " id="path22595" inkscape:export-filename="C:\Documents and Settings\Compte admin\Mes documents\Mes images\flowRoot42002655.png" inkscape:export-xdpi="270" inkscape:export-ydpi="270"/>
  <path style="fill:none;fill-rule:evenodd;stroke:#bd4d4d;stroke-width:0.30000001;stroke-linecap:butt;stroke-linejoin:miter;stroke-miterlimit:4;stroke-dasharray:none;stroke-opacity:0.2181208" d="M 345.60606,622.01499 L 345.417,622.77129 L 345.79513,623.14939 L 346.64593,623.43299 L 347.59126,623.05489 L 347.78032,622.58219 L 347.96939,621.82589 L 347.21312,621.63689 L 346.17326,621.63689 L 345.60606,622.01499 z " id="path22597" inkscape:export-filename="C:\Documents and Settings\Compte admin\Mes documents\Mes images\flowRoot42002655.png" inkscape:export-xdpi="270" inkscape:export-ydpi="270"/>
  <path style="fill:none;fill-rule:evenodd;stroke:#bc4c4c;stroke-width:0.30000001;stroke-linecap:butt;stroke-linejoin:miter;stroke-miterlimit:4;stroke-dasharray:none;stroke-opacity:0.21568627" d="M 350.61631,619.08449 L 349.57645,619.08449 L 348.72565,619.55709 L 348.44205,620.40789 L 349.86005,620.50249 L 350.71084,620.21889 L 351.37258,620.21889 L 351.37258,619.55709 L 350.61631,619.08449 z " id="path22599" inkscape:export-filename="C:\Documents and Settings\Compte admin\Mes documents\Mes images\flowRoot42002655.png" inkscape:export-xdpi="270" inkscape:export-ydpi="270"/>
  <path style="fill:none;fill-rule:evenodd;stroke:#bd4d4d;stroke-width:0.30000001;stroke-linecap:butt;stroke-linejoin:miter;stroke-miterlimit:4;stroke-dasharray:none;stroke-opacity:0.21476512" d="M 98.213213,615.87039 C 97.929613,616.01219 97.693283,616.10669 97.149723,616.54389 C 96.606153,616.98109 96.606153,617.38279 96.606153,617.38279 L 98.024153,617.95009 L 99.725743,617.57189 L 99.725743,616.53209 L 98.213213,615.87039 z " id="path30353" sodipodi:nodetypes="csccccc" inkscape:export-filename="C:\Documents and Settings\Compte admin\Mes documents\Mes images\flowRoot42002655.png" inkscape:export-xdpi="270" inkscape:export-ydpi="270"/>
  <path style="fill:none;fill-rule:evenodd;stroke:#bc4c4c;stroke-width:0.30000001;stroke-linecap:butt;stroke-linejoin:miter;stroke-miterlimit:4;stroke-dasharray:none;stroke-opacity:0.21476512" d="M 94.810023,617.00479 C 95.566293,616.05939 95.944423,615.49219 96.700683,615.49219 C 97.456953,615.49219 96.322553,614.73599 96.322553,614.73599 L 95.377223,614.54689 L 93.864693,615.68129 L 93.864693,616.24849 L 94.810023,617.00479 z " id="path30355" inkscape:export-filename="C:\Documents and Settings\Compte admin\Mes documents\Mes images\flowRoot42002655.png" inkscape:export-xdpi="270" inkscape:export-ydpi="270"/>
  <path style="fill:none;fill-rule:evenodd;stroke:#bc4a4a;stroke-width:0.30000001;stroke-linecap:butt;stroke-linejoin:miter;stroke-miterlimit:4;stroke-dasharray:none;stroke-opacity:0.21476512" d="M 92.919363,613.03439 C 91.784973,613.79059 91.406838,614.54689 91.406838,614.54689 L 92.163103,615.11409 L 92.541233,615.49219 L 93.297503,614.92499 L 92.919363,613.03439 z " id="path30357" inkscape:export-filename="C:\Documents and Settings\Compte admin\Mes documents\Mes images\flowRoot42002655.png" inkscape:export-xdpi="270" inkscape:export-ydpi="270"/>
  <path style="fill:none;fill-rule:evenodd;stroke:#4c3a3a;stroke-width:0.30000001;stroke-linecap:butt;stroke-linejoin:miter;stroke-miterlimit:4;stroke-dasharray:none;stroke-opacity:0.67449664" d="M 260.9045,74.290807 C 260.99903,74.290807 263.07876,55.573277 263.07876,55.573277" id="path34237" sodipodi:nodetypes="cc" inkscape:export-filename="C:\Documents and Settings\Compte admin\Mes documents\Mes images\flowRoot42002655.png" inkscape:export-xdpi="270" inkscape:export-ydpi="270"/>
  <path style="fill:none;fill-rule:evenodd;stroke:#3f2d2d;stroke-width:0.30000001;stroke-linecap:butt;stroke-linejoin:miter;stroke-miterlimit:4;stroke-dasharray:none;stroke-opacity:0.63422816" d="M 206.90621,74.198027 C 206.00954,68.801777 206.37145,71.061077 206.37145,71.061077" id="path36181" sodipodi:nodetypes="cc" inkscape:export-filename="C:\Documents and Settings\Compte admin\Mes documents\Mes images\flowRoot42002655.png" inkscape:export-xdpi="270" inkscape:export-ydpi="270"/>
  <path style="fill:none;fill-rule:evenodd;stroke:#bd4d4d;stroke-width:0.30000001;stroke-linecap:butt;stroke-linejoin:miter;stroke-miterlimit:4;stroke-dasharray:none;stroke-opacity:0.21476512" d="M 160.32139,330.56976 C 159.28153,329.34083 158.99793,328.9627 158.99793,328.9627 L 158.14713,328.77364 L 157.2018,329.43537 L 156.6346,330.56976 L 157.10727,331.70416 L 158.24166,332.93309 L 159.75419,332.55496 L 160.69952,331.32603 L 160.32139,330.56976 z " id="path42974" inkscape:export-filename="C:\Documents and Settings\Compte admin\Mes documents\Mes images\flowRoot42002655.png" inkscape:export-xdpi="270" inkscape:export-ydpi="270"/>
  <text xml:space="preserve" style="font-size:1.61260021px;font-style:normal;font-weight:normal;text-align:start;line-height:125%;writing-mode:lr-tb;text-anchor:start;fill:#634d38;fill-opacity:1;stroke:none;stroke-width:1px;stroke-linecap:butt;stroke-linejoin:miter;stroke-opacity:1;font-family:Bitstream Vera Sans" x="171.02852" y="299.35431" id="text46858" sodipodi:linespacing="125%" transform="scale(0.9682708,1.0327689)" inkscape:export-filename="C:\Documents and Settings\Compte admin\Mes documents\Mes images\flowRoot42002655.png" inkscape:export-xdpi="270" inkscape:export-ydpi="270"><tspan sodipodi:role="line" id="tspan46860" x="171.02852" y="299.35431">nk</tspan></text>
  <path style="fill:none;fill-rule:evenodd;stroke:#bc4c4c;stroke-width:0.30000001;stroke-linecap:butt;stroke-linejoin:miter;stroke-miterlimit:4;stroke-dasharray:none;stroke-opacity:0.20134229" d="M 161.08422,587.86167 C 160.51703,590.69766 161.27329,590.13046 162.40769,591.26485 C 163.54208,592.39925 164.29835,594.10084 164.29835,594.10084 L 163.92021,595.80244 L 162.59675,597.88216 L 162.59675,599.01656" id="path9976"/>
</svg>